<svg xmlns="http://www.w3.org/2000/svg" width="467.683" height="96.786" viewBox="0 0 123.741 25.608"><defs><clipPath id="a" clipPathUnits="userSpaceOnUse"><path d="M0 114h386V0H0z"/></clipPath></defs><g fill="#0086cc" clip-path="url(#a)" transform="matrix(.47193 0 0 -.47193 -27.534 39.637)"><path d="M169.462 77.335v-.823c0-1.431.861-1.646 2.021-1.646h6.54v1.9h-6.455v.882h6.24v4.22h-7.846a.946.946 0 0 1-.94-.95c0-.523.42-.947.94-.947h5.74v-.74h-6.24a.944.944 0 0 1-.946-.943c0-.53.42-.953.946-.953m-.466-3.336a.955.955 0 0 1-.953-.953c0-.522.43-.945.953-.945h9.634V74zm2.785-2.771h-2.11a.954.954 0 0 1-.954-.951c0-.526.427-.945.953-.945v-1.513c0-1.576.907-1.833 1.848-1.833h6.503v1.908h-6.24zm31.272 10.641v-2.67H201.5v2.67h-2.192a.946.946 0 0 1-.946-.952c0-.523.417-.946.946-.946v-8.745h2.192v6.08h1.552v-6.08h2.106v10.643zm-5.413-1.899v1.899h-6.553a.947.947 0 0 1-.926-.951c0-.516.41-.935.926-.947v-3.634c0-1.53.883-1.746 1.748-1.746h5.102v1.892H193.1v3.488zm-30.409.004v1.896h-8.205a.948.948 0 0 1 0-1.896h.805v-3.33h-.805a.95.95 0 0 1 0-1.899h8.205v1.898h-1.377v3.331zm-3.332-3.33h-2.11v3.33h2.11zm3.916-2.77h-9.633a.948.948 0 1 1 0-1.897h3.586V63.23h2.106v8.746h3.941zm14.627 3.15v2.952h5.958v1.892h-7.974a.95.95 0 0 1-.932-.954c0-.518.417-.936.932-.938v-3.098c0-1.534.886-1.75 1.754-1.75h6.424v1.896zm-2.458-2.771h9.422v-1.897h-9.422a.949.949 0 1 0 0 1.897m4.421-2.752c-2.072 0-3.773-1.68-3.773-3.757 0-2.07 1.701-3.759 3.773-3.759s3.737 1.689 3.737 3.759a3.74 3.74 0 0 1-3.737 3.757m0-5.664c-1.05 0-1.932.863-1.932 1.907 0 1.05.882 1.908 1.932 1.908a1.915 1.915 0 0 0 1.908-1.908 1.918 1.918 0 0 0-1.908-1.907m-46.709 6.357-10.848-4.077 11.28-3.164 10.85 4.075zM129.835 41.3l5.518 2.074v8.395l-5.518-2.072zm16.889 16.64v6.5l-1.38-.517v-6.501l-3.63-1.364V35.472l8.642 3.247v20.587zm-22.409-1.92-6.243-2.346-6.24-2.347-6.243-2.343-6.244 1.748-6.243 1.753-6.242 1.753-6.242 1.75V39.195l6.242-1.75 6.242-1.752 6.243-1.751 6.244-1.752 6.243 2.345 6.24 2.345 6.243 2.347v8.398l5.52 2.071v8.398z"/><path d="m96.617 78.975-7.23-2.718-7.232-2.717-7.23-2.718-7.23-2.719-7.232-2.716 7.523-2.11 7.52-2.109 7.521-2.11 7.52-2.114 7.522-2.11 7.52-2.112 7.23 2.72 7.235 2.717 7.228 2.717 7.231 2.717-15.042 4.221-7.23-2.715h-.003l7.233 2.715 14.464 5.437-15.044 4.22-7.52 2.11-7.524 2.111zM89.967 66.6h.001l-7.233-2.717zM275.41 55.967h3.892v4.277h-12.43v-4.277h3.89c0-2.53-.224-5.986-4.92-7.496v-4.288s4.413.013 7.243 3.973c2.83-3.96 7.245-3.973 7.245-3.973v4.288c-4.297.87-4.92 4.583-4.92 7.496m-14.416 4.849h-4.174V44.253h4.174v5.732h2.88v4.28h-2.88zm-4.193-17.884h-11.977v-4.187h9.977c1.532 0 2.398-.321 2.398-1.486v-3.171h4.127v4.469c0 2.53-1.393 4.375-4.525 4.375m46.437-3.171V44.3h-4.128v-5.838c0-2.528 1.393-4.374 4.528-4.374h11.974v4.187h-10.51c-1.53 0-1.864.324-1.864 1.486M287.7 52.76h-1.762v8.056h-4.175V34.139h4.175v14.345h1.762V34.139h4.174v26.677H287.7zm27.85 2.27v5.786h-4.174V44.253h4.174v6.5h2.88v4.278zm-71.506-3.71c0 1.472 1.167 2.668 2.601 2.668 1.438 0 2.602-1.196 2.602-2.667 0-1.474-1.164-2.666-2.602-2.666-1.434 0-2.6 1.192-2.6 2.666m8.752 0c0 1.318-.396 2.54-1.072 3.556h3.47v4.276h-6.463v2.403h-4.174v-2.403h-6.46v-4.276h3.47a6.403 6.403 0 0 1-1.07-3.556c0-3.48 2.753-6.302 6.147-6.302 3.398 0 6.152 2.822 6.152 6.302m56.523-.2h-8.909c-1.533 0-1.865.326-1.865 1.485v3.36h10.89v4.278h-14.964v-.638h-.054v-8.298c0-2.528 1.393-4.371 4.526-4.371h10.376zm-82.506-15.524c-1.72 0-3.114 1.427-3.114 3.193 0 1.763 1.393 3.192 3.114 3.192 1.723 0 3.117-1.43 3.117-3.192 0-1.766-1.394-3.193-3.117-3.193m0 10.136c-3.74 0-6.774-3.11-6.774-6.943 0-3.834 3.034-6.944 6.774-6.944 3.742 0 6.778 3.11 6.778 6.944 0 3.833-3.036 6.943-6.778 6.943m-20.894 10.25c0 2.528-1.393 4.375-4.529 4.375h-14.64v-4.19h13.177c1.532 0 1.866-.32 1.866-1.484v-3.08h-16.908v-4.276h9.36v-2.825h-7.496v-4.187h13.178c1.532 0 1.866-.322 1.866-1.484v-4.744h4.126v6.042c0 2.527-1.393 4.373-4.529 4.373h-2.969v2.825h9.362v4.276h-1.864zm-25.352 4.833h-4.173V44.253h4.173v5.732h2.881v4.28h-2.88zm47.037-13.418v4.282c-4.095 0-5.376 2.663-5.755 4.15h5.358v4.278h-16.03V55.83h5.36c-.384-1.488-1.662-4.151-5.76-4.151v-4.282s6.05.407 8.413 3.863c2.134-3.327 8.414-3.863 8.414-3.863m-63.987 3.923c0 1.47 1.165 2.667 2.602 2.667 1.438 0 2.602-1.196 2.602-2.667 0-1.474-1.164-2.666-2.602-2.666-1.437 0-2.602 1.192-2.602 2.666m8.753 0c0 1.318-.397 2.54-1.073 3.556h3.471v4.276h-6.46v2.403h-4.176v-2.403h-6.462v-4.276h3.473a6.39 6.39 0 0 1-1.073-3.556c0-3.48 2.752-6.302 6.15-6.302 3.396 0 6.15 2.822 6.15 6.302m61.324 9.495h-4.176v-14.65h4.176v5.27h2.877v4.279h-2.877zM168.26 39.76v3.17h-4.127v-4.47c0-2.527 1.391-4.373 4.526-4.373h11.975v4.187h-10.508c-1.533 0-1.866.324-1.866 1.486"/></g></svg>